<svg class="clouds" width="100%" height="100%" viewBox="00 0 1800 1400" xmlns="http://www.w3.org/2000/svg">
  <defs>
    <linearGradient id='myGradient'>
      <stop offset='0%' stop-color='#5ac1de'></stop>
      <stop offset='50%' stop-color='#ffeca7'></stop>
      <stop offset='100%' stop-color='#5ac1de'></stop>
    </linearGradient>
    <style>
        #cloud1 {
        animation: fall-1 40s linear infinite;
        }
        #cloud2 {
        animation: fall-2 40s linear infinite;
        }
        #cloud3 {
        animation: fall-3 40s linear infinite;
        }
        #cloud4 {
        animation: fall-4 40s linear infinite;
        }
        @keyframes fall-1 {
        from {
        transform: translate(-600%, 10%);
        }
        to {
        transform: translate(300%, 90%);
        }
        }
        @keyframes fall-2 {
        from {
        transform: translate(-100%, 20%);
        }
        to {
        transform: translate(600%, 80%);
        }
        }
        @keyframes fall-3 {
        from {
        transform: translate(-400%, 90%);
        }
        to {
        transform: translate(200%, 10%);
        }
        }
        @keyframes fall-4 {
        from {
        transform: translate(-200%, 20%);
        }
        to {
        transform: translate(800%, 80%);
        }
        }
</style>
        </defs>
      <rect width="100%" height="100%" fill='url(#myGradient)' /> 
		  <path id="cloud1" fill-rule="evenodd" clip-rule="evenodd" stroke-linejoin="round" stroke-miterlimit="2" d="M478.77 100.46c-42.14-2.8-72.72 13.72-95.28 43.6-98.62-34.17-204.39-23.22-236.2 27.97-27.05 1.1-46.3 7.51-52.67 22.69-62.05-.35-94.24 11.86-94.3 30.26-.06 19.12 44.18 32.03 106.11 43.24 40.24 18.08 108.94 22.28 230.63 10.43 35.39 11.86 68.89 17.28 97.43 5.92 49.44 22.02 103.52 26.63 165.25 2.48 32.76 21.53 79.71 21.55 130.26 16.12 56.64 11.71 112.73 11.27 167.51-17.24 78.25 7.46 154.79-3.62 233.05-38.75 53.95 7.34 109.3 6.23 167.19-10.36 70.43 9.33 141.37 2.65 143.04-10.02 2.72-20.59-58.2-39.76-112.03-31.4-24.95-19.13-56.45-34.09-84.81-26.64-15.09-8.53-30.38-14.75-46.51-11.29-37.14-35.78-73.05-33.03-108.42-13.46-48.04-23.54-88.97-24.47-121.38-2.89-38.27-37.08-77.49-44.05-113.27-28.84-52.81-155.54-320.59-138.43-375.6-11.82z" fill="#f0fbfc" fill-opacity=".67"> </path>
      <path id="cloud2" fill-rule="evenodd" clip-rule="evenodd" stroke-linejoin="round" stroke-miterlimit="2" d="M247.754 41.78c-15.922 10.22-57.679.06-68.113 9.46-37.45-22.05-78.237-10.59-97.847 3.78-30.003-7.39-45.543.32-45.543.32S13.449 57.78.882 56.6c0 10.18 37.391 14.13 84.124 10.79 32.225 4.08 64.646 5.73 97.894-2.77 39.615-6.22 64.854-9.75 64.854-22.84z" fill="#fbf6f1" fill-opacity=".67"> </path>
		  <path id="cloud3" fill-rule="evenodd" clip-rule="evenodd" stroke-linejoin="round" stroke-miterlimit="2" d="M9.39 72.8c9.93 11.41 44.54 10.94 44.54 10.94 21.05-6.12 44.17-7.8 71.48-.46 6.69-2.58 13.39-3.73 20.08-2.62 39.39-34.14 75.36-34.18 108.68-7.9 17.66-7.02 35.66-3.8 53.99 9.44 18.45-6.91 52.32 3.66 62.74 2.55 0 21.85-70.98 10.3-70.98 10.3-51.69 11.17-105.3 12.51-161.12 2.46-34.44 11.33-67.52 10.85-99.24-1.43C-2.06 89.09-6.65 81.2 9.39 72.8z" fill="#fbf6f1" fill-opacity=".87"> </path>
		  <path id="cloud4" fill-rule="evenodd" clip-rule="evenodd" stroke-linejoin="round" stroke-miterlimit="2" d="M668.68 253.07c-169.57-74-317.71-58.91-346.399 60.5-12.439 1.52-23.509 8.38-33.446 19.65-57.452-21.24-102.802-17.54-137.041 7.19-33.766 2.83-54.666 17.92-64.471 40.51-20.133-3.12-30.276 2.11-39.259 10.64-17.262.91-32.867 4.99-44.157 15.73-14.035 16.86 14.59 21.27 54.208 20.29 76.049 13.33 150.638 26.49 237.455 16.62 60.28 7.3 127.53 6.6 197.82 2.4 76.75 11.89 134.96 20.92 236.16-8.71 204.17 17.06 411.44 32.02 583.68-.5 95.65 8.05 189.53 3.27 280.62-21.77 144.16-3.08 322.19 1.53 306.11-37.91-25.91-23.12-55.45-36.13-89.05-37.83-42.16-58.35-94.89-72.11-153.49-61.15-29.85-88.26-90.86-135.33-200.96-98.52-22.92-13.56-43.99-10.4-62.58-1.66-16.51-14.81-35.6-19.53-58.23-17.1-47.54-224.74-475.69-207.39-507.12 9.61-38.74 12.34-55.83 33.28-61.54 58.73-39.3-11.95-72.96-4.82-98.31 23.28z" fill="#f0fbfc" fill-opacity=".85"> </path>
		
	    </svg>